<?xml version="1.0" standalone="no"?>
<!DOCTYPE svg PUBLIC "-//W3C//DTD SVG 20010904//EN"
 "http://www.w3.org/TR/2001/REC-SVG-20010904/DTD/svg10.dtd">
    <svg version="1.0" xmlns="http://www.w3.org/2000/svg"
    width="225.000000pt" height="225.000000pt" viewBox="0 0 225.000000 225.000000"
    preserveAspectRatio="xMidYMid meet">
    <metadata>
    Created by potrace 1.16, written by Peter Selinger 2001-2019
    </metadata>
    <g transform="translate(0.000000,225.000000) scale(0.100000,-0.100000)"
    fill="#000000" stroke="none">
    <path d="M820 2065 c0 -12 127 -499 156 -597 3 -11 -2 -17 -18 -20 -22 -3 -23
    -7 -26 -103 l-3 -100 -66 -35 c-169 -87 -278 -259 -290 -455 -16 -263 159
    -504 413 -570 74 -19 203 -19 277 0 201 52 368 230 408 433 46 238 -81 494
    -298 600 l-52 26 -3 100 c-3 97 -4 101 -26 104 -16 3 -21 9 -18 20 28 97 156
    585 156 597 0 13 -20 15 -130 15 l-129 0 -16 -57 c-29 -104 -30 -104 -52 -23
    l-20 75 -131 3 c-114 2 -132 0 -132 -13z m253 -142 l27 -108 -29 -105 c-16
    -58 -34 -125 -41 -149 -6 -23 -13 -41 -15 -39 -4 3 -135 491 -135 501 0 4 37
    7 83 7 l82 0 28 -107z m297 100 c0 -5 -34 -133 -75 -286 -41 -153 -75 -280
    -75 -283 0 -6 -156 -5 -162 1 -4 4 130 518 147 563 5 13 165 18 165 5z m-100
    -692 l0 -70 -37 7 c-21 4 -69 7 -108 7 -38 0 -87 -3 -107 -7 l-38 -7 0 70 0
    69 145 0 145 0 0 -69z m-49 -111 c87 -16 194 -75 263 -144 158 -159 192 -396
    85 -597 -44 -82 -141 -171 -234 -216 -68 -32 -88 -37 -175 -41 -117 -5 -179 7
    -273 55 -78 41 -173 137 -212 213 -99 196 -63 431 89 584 123 124 289 177 457
    146z"/>
    <path d="M1013 1145 c-124 -34 -222 -115 -280 -232 -32 -65 -37 -86 -41 -163
    -10 -206 101 -374 293 -441 50 -17 77 -20 161 -17 89 3 108 7 167 36 74 37
    150 106 189 173 69 118 77 281 20 403 -91 194 -306 295 -509 241z m280 -73
    c77 -38 148 -111 185 -190 24 -51 27 -69 27 -162 0 -95 -3 -111 -29 -163 -75
    -154 -252 -247 -412 -218 -127 24 -235 105 -291 218 -25 52 -28 68 -28 163 0
    93 3 112 27 162 48 103 143 186 247 215 26 7 81 11 128 10 67 -3 92 -9 146
    -35z"/>
    <path d="M1097 938 c-8 -13 -25 -43 -38 -68 -24 -45 -25 -45 -101 -59 -50 -9
    -79 -20 -83 -29 -4 -10 14 -36 50 -72 l55 -56 -11 -78 c-14 -106 -8 -110 84
    -64 l72 35 72 -35 c93 -46 100 -42 84 64 l-11 78 56 57 c31 31 54 63 52 70 -3
    8 -38 20 -84 29 l-79 15 -35 65 c-38 71 -61 84 -83 48z m58 -107 c24 -48 27
    -50 85 -62 l60 -12 -40 -43 c-43 -47 -43 -46 -31 -116 4 -27 7 -48 6 -48 -2 0
    -28 11 -58 25 l-56 26 -50 -26 c-28 -14 -52 -25 -54 -25 -2 0 0 21 4 48 12 70
    12 69 -31 116 l-40 43 60 12 c58 12 61 14 85 62 14 27 27 49 30 49 3 0 16 -22
    30 -49z"/>
    </g>
    </svg>
